<?xml version="1.0" encoding="utf-8"?>
<!-- Generator: Adobe Illustrator 16.0.0, SVG Export Plug-In . SVG Version: 6.00 Build 0)  -->
<!DOCTYPE svg PUBLIC "-//W3C//DTD SVG 1.1//EN" "http://www.w3.org/Graphics/SVG/1.1/DTD/svg11.dtd">
<svg version="1.1" id="Layer_1" xmlns="http://www.w3.org/2000/svg" xmlns:xlink="http://www.w3.org/1999/xlink" x="0px" y="0px"
	 width="1400px" height="980px" viewBox="0 0 1400 980" enable-background="new 0 0 1400 980" xml:space="preserve">
<g>
	<rect fill="#FFFFFF" width="1400" height="980"/>
	<g>
		<g>
			<path d="M601.642,772.282c0,0,10.854-84.779,5.789-127.057l-89.732-14.779h-6.513c0,0-4.966-25.266-16.865-33.47
				c-5.108-3.522-14.45-8.631-23.15-11.511v-37.232l-8.319-7.931c0,0-2.388-18.793-20.267-31.971
				c3.562-10.504,10.105-39.632-20.837-52.893c-9.448-4.051-27.837-0.342-47.48,11.709c0,0-39.774,22.236-44.622,12.307
				c0,0-0.943-5.888,11.205-5.421c0,0-3.322-15.979-24.616-11.438c-8.52,3.066-23.3,13.896-11.126,33.9
				c0,0-2.964-0.712-12.187-3.513c-10.515-3.188-31.387-0.782-38.903,22.865c-2.068,10.176-4.497,25.477,16.648,36.474
				c0,0-2.843-18.639,7.642-18.998c0,0,8.395,2.537,17.714,9.397c9.347,6.887,19.066,10.169,37.221,6.887
				c0,0,16.912-3.069,31.105-18.455c0,0,4.534-5.605,10.236-10.106c-6.833,10.046-8.011,19.256-8.011,19.256l-8.319,7.931v34.102
				c-11.964,0.38-31.74,4.769-38.746,28.481c0,0-16.282,4.613-26.866,27.408l-10.041,7.001l-1.357,5.211l-11.397,1.899
				c0,0-12.665,34.555-10.855,63.863c0,0-5.88,8.65-8.788,19.83l-4.655-0.544c-0.995-4.46-4.968-7.795-9.727-7.795
				c-5.508,0-9.973,4.465-9.973,9.973c0,5.509,4.465,9.974,9.973,9.974c2.721,0,5.185-1.093,6.984-2.859l-0.097,0.503l5.91,2.638
				c0.039,5.306,1.198,10.7,4.222,15.681c0,0,4.704,4.25,11.759,6.512c3.098,1.768,5.982,2.37,7.779,5.065l14.111,2.171
				l-3.107,13.794c-3.391,0.376-6.029,3.248-6.029,6.739c0,3.747,3.038,6.784,6.785,6.784c3.747,0,6.784-3.037,6.784-6.784
				c0-1.7-0.63-3.25-1.663-4.44l8.809-16.815l5.79,9.046l184.169,74.535c0,0,69.471,29.851,104.206,29.851
				c0,0-11.94-13.025-34.735-28.223C557.499,861.833,589.34,837.411,601.642,772.282z M357.93,765.044l-38.422-13.93l-9.77,1.357
				l7.465-15.375c0.439,0.082,0.891,0.13,1.354,0.13c4.009,0,7.259-3.25,7.259-7.259s-3.25-7.259-7.259-7.259
				c-4.009,0-7.259,3.25-7.259,7.259c0,1.209,0.3,2.347,0.822,3.35l-9.71,11.284c-0.271-11.669-12.754-23.338-12.754-23.338
				l30.393-38.263v-8.413l20.624-10.854c3.808,20.291,10.574,36.647,13.026,49.66c1.495,7.933,8.141,32.836,8.141,32.836
				L357.93,765.044z"/>
			<path fill="#DBB865" d="M324.845,616.334c0,0-18.091,7.599-23.7,22.252c0,0-1.99,5.428-8.684,8.142l-1.085,3.98
				c0,0,21.348,2.171,25.327,11.397c0,0,2.215-7.913,11.398-16.88c6.151-6.007,16.976-10.291,16.976-10.291
				S334.433,627.731,324.845,616.334z"/>
			<path fill="#DBB865" d="M275.274,656.859c0,0-10.854,32.564-11.578,56.083c0,0,16.01-3.256,20.985,2.532
				c0,0,15.197-28.585,27.861-40.887C312.542,674.588,304.22,651.432,275.274,656.859z"/>
			<path fill="#DBB865" d="M599.108,652.879l-82.858-14.293l-82.858,18.766c-3.618,64.586,16.644,148.579,16.644,148.579
				l66.214,32.022l36.907,17.91C553.157,855.863,612.315,805.931,599.108,652.879z"/>
			<path fill="#B1ADAE" d="M303.497,758.894l16.282-1.447l134.6,58.615c0,0,103.844,47.763,125.554,68.024
				c0,0-43.226-5.261-133.876-46.133c-34.104-15.377-138.217-57.351-138.217-57.351l-9.046-13.387L303.497,758.894z"/>
			<path fill="#DBB865" d="M263.696,721.807c0,0,17.277-1.357,22.433,1.628l-3.347,30.394h-26.504
				C256.278,753.828,252.48,733.204,263.696,721.807z"/>
			<polygon fill="#DBB865" points="257.002,757.446 258.087,761.971 265.143,765.044 264.239,757.446 			"/>
			<polygon fill="#DBB865" points="268.219,757.446 269.667,766.131 276.179,770.654 274.189,757.446 			"/>
			<polygon fill="#DBB865" points="284.139,757.446 288.12,771.739 279.797,770.654 277.445,757.446 			"/>
			<path fill="#DBB865" d="M289.657,732.118v12.212l3.799,9.498c0,0,4.071,0,5.337-4.07c-1.238-2.743-2.623-9.227-2.623-9.227
				L289.657,732.118z"/>
			<path d="M295.784,662.919c0,0,8.536,4.245,10.517,10.188c0,0-17.355,24.193-22.448,36.173l-8.678-1.493
				c0,0,2.547-1.573,4.527-3.271C279.703,704.515,300.641,677.822,295.784,662.919z"/>
			<path d="M304.583,648.943c0,0,8.276,1.968,10.854,4.003c0,0,12.28-17.843,21.438-19.674c0,0-4.975-2.374-7.779-6.896
				c0,0-0.453,3.438-2.262,5.608C326.834,631.984,314.714,648.174,304.583,648.943z"/>
			<path fill="#DBB865" d="M369.847,755.32l-2.008,8.217c0,0,41.492,19.87,69.443,22.312l-2.338-10.759
				C434.944,775.091,396.169,770.518,369.847,755.32z"/>
			<polygon points="535.789,865.633 297.055,757.446 295.64,760.379 294.225,763.312 			"/>
			<path d="M582.104,672.418l-65.853-14.954l-65.853,14.954c0,0,5.226,116.468,20.408,143.557l45.445,21.979V669.741l57.712,13.105
				c0,0,7.693,107.793-29.877,168.613l0.631,0.306C590.787,793.991,582.104,672.418,582.104,672.418z"/>
			<path fill="#DBB865" d="M358.254,588.566c-5.183,0.571-10.821,1.919-14.866,4.882c-8.815,6.457-15.197,16.825-15.197,16.825
				s23.519,19.812,59.973,36.455c0,0-0.075-0.112-0.219-0.331c-12.908-8.594-38.77-34.225-38.77-34.225
				c4.585-7.434,13.401-12.207,17.017-13.931l-7.939-7.294V588.566z"/>
			<path fill="#DBB865" d="M468.545,593.36l-7.704,7.078l2.232,9.49l-1.396,2.234c0,0-1.322,1.582-3.41,4.243
				c9.038,5.473,13.284,16.369,15.107,23.088l29.307-6.154C502.682,633.34,503.126,602.616,468.545,593.36z"/>
			<path fill="#DBB865" d="M395.113,654.068c-6.192-0.775-12.81-1.849-19.251-3.36l-17.368-5.482c0,0-3.061,5.645-9.318,12.126
				l7.122,29.668c6.792,8.146,19.284,14.318,42.269,9.381c0,0-16.645,15.762-38.092,8.018l9.711,40.455c0,0,12.914,18,63.207,20.171
				c0,0-11.863-72.359-9.788-108.658c-3.409,1.641-7.435,4.406-8.304,8.559c-1.201-5.741-8.438-8.834-11.73-9.961
				c-0.385-0.034-0.79-0.077-1.181-0.114c-1.305,2.32-2.834,4.441-4.636,6.244C397.077,658.85,396.172,656.482,395.113,654.068z"/>
			<path fill="#BE1E2D" d="M351.308,517.522c0,0,30.194-31.104,53.503-14.43l-13.476,0.816
				C391.335,503.909,369.701,508.24,351.308,517.522z"/>
			<path fill="#DBB865" d="M368.022,546.28l-4.959,4.094c0,0-1.292,33.163,0,39.271l6.638,5.026v-20.102l-3.606-22.521l2.247-0.744
				L368.022,546.28z"/>
			<polygon points="364.574,572.669 364.574,589.419 368.575,591.281 368.575,577.414 			"/>
			<path fill="#ED1C24" d="M388.836,572.669l9.087,0.67c0,0,3.573,1.496,3.761,5.333
				C401.684,578.672,392.176,579.393,388.836,572.669z"/>
			<path stroke="#ED1C24" stroke-miterlimit="10" d="M398.952,570.476"/>
			<path fill="#DBB865" d="M461.402,546.28l4.959,4.094c0,0,1.292,33.163,0,39.271l-6.637,5.026v-20.102l3.606-22.521l-2.248-0.744
				L461.402,546.28z"/>
			<path fill="#DBB865" d="M458.357,556.604c0,0-14.546,0.563-31.296-8.65l-12.349,8.661l-12.348-8.661
				c-16.75,9.214-31.297,8.65-31.297,8.65c7.257,22.056,0.589,52.488,0.589,52.488c22.332,20.1,27.079,43.551,27.079,43.551
				c5.304-10.609,5.863-31.827,5.863-31.827l-2.792-35.732c-17.309-1.116-21.217-17.868-21.217-17.868l18.982,1.956
				c13.401,5.86,10.05,37.407,10.05,37.407l5.09,6.144l5.091-6.144c0,0-3.351-31.547,10.051-37.407l18.982-1.956
				c0,0-3.909,16.752-21.218,17.868l-2.791,35.732c0,0,0.559,21.218,5.863,31.827c0,0,4.747-23.451,27.079-43.551
				C457.769,609.093,451.1,578.66,458.357,556.604z M383.382,587.306l0.498,17.662c15.135,16.191,15.073,32.383,15.073,32.383
				c-5.024-14.703-20.285-31.452-20.285-31.452v-23.267L383.382,587.306z M450.758,605.898c0,0-15.261,16.749-20.286,31.452
				c0,0-0.062-16.191,15.073-32.383l0.498-17.662l4.715-4.674V605.898z"/>
			<path fill="#DBB865" d="M448.648,549.794c5.26,1.013,9.121,1.511,9.121,1.511c-0.278-29.592-24.566-43.271-24.566-43.271
				l-18.491-3.072l-18.49,3.072c0,0-24.288,13.679-24.566,43.271c0,0,3.861-0.498,9.121-1.511
				c0.622-21.857,18.175-35.65,18.175-35.65c-9.286,16.175-10.1,30.271-10.146,33.893c5.472-1.357,11.156-3.146,15.233-5.386
				l10.673,7.257l10.673-7.257c4.077,2.239,9.762,4.028,15.234,5.386c-0.047-3.621-0.861-17.718-10.147-33.893
				C430.472,514.144,448.026,527.937,448.648,549.794z"/>
			<polygon points="464.851,572.669 464.851,589.419 460.851,591.281 460.851,577.414 			"/>
			<path fill="#ED1C24" d="M440.589,572.669l-9.087,0.67c0,0-3.573,1.496-3.76,5.333
				C427.742,578.672,437.249,579.393,440.589,572.669z"/>
			<path stroke="#ED1C24" stroke-miterlimit="10" d="M430.472,570.476"/>
			<path fill="#BE1E2D" d="M437.363,504.966c2.219-5.888,2.251-13.188,1.703-17.554c-1.946-15.433-16.82-25.007-26.006-25.628
				c-17.833-1.205-32.621,10.806-45.998,17.312c-10.103,4.915-25.173,10.562-31.853,9.255c-10.486-2.049-13.739-7.104-13.362-10.958
				c0.842-8.612,13.34-6.731,13.34-6.731c-1.55-2.841-7.168-3.568-7.168-3.568c-14.103-1.811-18.662,6.211-19.742,12.386
				c-2.708,15.483,15.033,22.034,15.033,22.034c-0.021,0.014-0.044,0.024-0.065,0.038c3.131,1.008,8.167,1.666,15.512-0.038
				c0,0-7.381,7.353-23.192,2.381c-6.685,0.608-13.155-1.538-13.155-1.538c-7.231-2.894-12.533-3.616-12.533-3.616
				c-21.209-3.135-28.159,18.115-28.159,18.115c-5.436,17.703,4.298,24.471,4.298,24.471c-0.087-1.971-0.016-3.708,0.186-5.253
				l-0.001,0.002c0,0,0.003-0.025,0.01-0.068c0.244-1.827,0.672-3.373,1.256-4.667c2.121-5.797,7.502-14.551,20.346-11.982
				c0,0,2.926,1.044,7.1,4.803c0,0-9.516-3.08-14.825,1.331c7.459,0.878,15.091,5.304,15.091,5.304
				c12.051,6.508,16.392,8.436,16.392,8.436c17.832,6.024,33.155-14.195,33.155-14.195c-6.265,7.472-33.46,10.656-39.669,0.208
				c20.506,2.374,38.27-14.601,47.178-20.331c22.661-14.59,30.961-16.78,50.798-15.331c-11.538-7.869-24.273-5.573-24.273-5.573
				s15.822-5.936,20.459-6.68c22.993-3.689,27.155,14.191,27.687,24.461C429.949,502.376,433.9,503.368,437.363,504.966z"/>
		</g>
		<g>
			<path d="M1120.506,647.909l-13.684-13.045c0,0-3.928-30.908-33.335-52.584c5.859-17.276,16.62-65.184-34.271-86.995
				c-15.541-6.663-45.784-0.562-78.093,19.258c0,0-65.418,36.573-73.394,20.243c0,0-1.551-9.684,18.43-8.917
				c0,0-5.465-26.281-40.488-18.814c-14.012,5.045-38.321,22.856-18.299,55.76c0,0-4.875-1.173-20.044-5.778
				c-17.293-5.242-51.624-1.287-63.985,37.607c-3.4,16.737-7.396,41.902,27.383,59.991c0,0-4.676-30.656,12.566-31.247
				c0,0,13.809,4.171,29.136,15.455c15.373,11.328,31.36,16.726,61.22,11.328c0,0,27.816-5.051,51.162-30.354
				c0,0,7.456-9.22,16.835-16.623c-11.239,16.523-13.178,31.671-13.178,31.671l-13.684,13.045v70.254l16.989,15.609l-3.672,15.609
				l2.295,3.676c0,0,39.333,46.968,49.354,80.51c9.799-9.801,14.771-25.252,17.251-39.795l10.642,6.243l10.644-6.243
				c2.479,14.543,7.452,29.994,17.251,39.795c10.021-33.542,49.353-80.51,49.353-80.51l2.295-3.676l-3.67-15.609l16.99-15.609
				V647.909z"/>
			<path fill="#BE1E2D" d="M923.359,597.396c0,0,49.66-51.159,87.999-23.732l-22.164,1.342
				C989.194,575.006,953.61,582.13,923.359,597.396z"/>
			<path fill="#DBB865" d="M950.851,644.695l-8.155,6.733c0,0-2.126,54.545,0,64.59l10.915,8.269v-33.062l-5.929-37.04l3.694-1.225
				L950.851,644.695z"/>
			<polygon points="945.179,688.098 945.179,715.649 951.76,718.711 951.76,695.903 			"/>
			<path fill="#ED1C24" d="M985.085,688.098l14.945,1.103c0,0,5.875,2.462,6.186,8.771
				C1006.216,697.972,990.578,699.158,985.085,688.098z"/>
			<path stroke="#ED1C24" stroke-miterlimit="10" d="M1001.723,684.491"/>
			<path fill="#DBB865" d="M1104.438,644.695l8.155,6.733c0,0,2.127,54.545,0,64.59l-10.916,8.269v-33.062l5.93-37.04l-3.696-1.225
				L1104.438,644.695z"/>
			<path fill="#DBB865" d="M1099.431,661.677c0,0-23.927,0.927-51.476-14.229l-20.312,14.246l-20.308-14.246
				c-27.551,15.155-51.477,14.229-51.477,14.229c11.938,36.275,0.967,86.329,0.967,86.329c36.732,33.06,44.54,71.63,44.54,71.63
				c8.725-17.448,9.643-52.346,9.643-52.346l-4.591-58.771c-28.469-1.836-34.897-29.389-34.897-29.389l31.221,3.217
				c22.043,9.641,16.53,61.526,16.53,61.526l8.372,10.104l8.373-10.104c0,0-5.51-51.886,16.53-61.526l31.222-3.217
				c0,0-6.428,27.553-34.897,29.389l-4.591,58.771c0,0,0.918,34.897,9.644,52.346c0,0,7.809-38.57,44.537-71.63
				C1098.461,748.006,1087.495,697.952,1099.431,661.677z M976.113,712.172l0.819,29.051c24.894,26.63,24.79,53.261,24.79,53.261
				c-8.264-24.183-33.364-51.729-33.364-51.729v-38.269L976.113,712.172z M1086.93,742.754c0,0-25.1,27.547-33.364,51.729
				c0,0-0.103-26.631,24.791-53.261l0.817-29.051l7.756-7.687V742.754z"/>
			<path fill="#DBB865" d="M1083.461,650.476c8.65,1.664,15,2.484,15,2.484c-0.457-48.672-40.404-71.169-40.404-71.169
				l-30.413-5.054l-30.41,5.054c0,0-39.947,22.497-40.407,71.169c0,0,6.351-0.82,15.003-2.484
				c1.023-35.951,29.894-58.637,29.894-58.637c-15.272,26.604-16.609,49.79-16.688,55.746c9-2.234,18.351-5.177,25.057-8.859
				l17.553,11.937l17.555-11.937c6.705,3.683,16.058,6.625,25.056,8.859c-0.077-5.956-1.415-29.143-16.688-55.746
				C1053.565,591.839,1082.438,614.524,1083.461,650.476z"/>
			<polygon points="1110.111,688.098 1110.111,715.649 1103.531,718.711 1103.531,695.903 			"/>
			<path fill="#ED1C24" d="M1070.205,688.098l-14.947,1.103c0,0-5.877,2.462-6.184,8.771
				C1049.074,697.972,1064.711,699.158,1070.205,688.098z"/>
			<path stroke="#ED1C24" stroke-miterlimit="10" d="M1053.565,684.491"/>
			<path fill="#BE1E2D" d="M1064.898,576.743c3.648-9.684,3.703-21.689,2.8-28.871c-3.2-25.382-27.665-41.129-42.771-42.15
				c-29.332-1.982-53.653,17.771-75.655,28.473c-16.616,8.083-41.402,17.372-52.391,15.222
				c-17.246-3.369-22.595-11.685-21.977-18.023c1.385-14.165,21.941-11.071,21.941-11.071c-2.549-4.672-11.789-5.868-11.789-5.868
				c-23.195-2.979-30.695,10.214-32.471,20.37c-4.455,25.466,24.725,36.241,24.725,36.241c-0.033,0.022-0.071,0.039-0.106,0.062
				c5.151,1.657,13.433,2.74,25.514-0.062c0,0-12.142,12.092-38.146,3.915c-10.995,1.001-21.637-2.529-21.637-2.529
				c-11.895-4.76-20.613-5.946-20.613-5.946c-34.885-5.156-46.313,29.793-46.313,29.793c-8.941,29.117,7.067,40.249,7.067,40.249
				c-0.144-3.241-0.024-6.098,0.307-8.641l-0.004,0.004c0,0,0.008-0.041,0.019-0.111c0.4-3.006,1.105-5.548,2.064-7.678
				c3.489-9.534,12.341-23.933,33.464-19.708c0,0,4.812,1.718,11.679,7.9c0,0-15.652-5.067-24.385,2.189
				c12.271,1.444,24.821,8.724,24.821,8.724c19.82,10.702,26.96,13.874,26.96,13.874c29.329,9.908,54.532-23.349,54.532-23.349
				c-10.303,12.29-55.032,17.526-65.244,0.344c33.727,3.903,62.944-24.016,77.594-33.441c37.271-23.995,50.923-27.599,83.551-25.216
				c-18.977-12.942-39.922-9.165-39.922-9.165s26.021-9.765,33.649-10.989c37.817-6.066,44.663,23.343,45.536,40.234
				C1052.705,572.483,1059.204,574.115,1064.898,576.743z"/>
		</g>
		<g>
			<path d="M1172.295,313.242l-15.177,20.127c0,0-17.817-24.416-43.553-9.568l-26.066-7.259l-3.299,5.279l-8.744-2.915
				l-2.559-10.878l12.574-11.556v-51.998l-10.126-9.655c0,0-2.907-22.877-24.674-38.922c4.337-12.789,12.298-48.245-25.367-64.389
				c-11.504-4.933-33.889-0.417-57.801,14.254c0,0-48.421,27.07-54.323,14.983c0,0-1.148-7.168,13.642-6.6
				c0,0-4.044-19.454-29.969-13.925c-10.372,3.731-28.364,16.915-13.544,41.27c0,0-3.607-0.867-14.836-4.275
				c-12.801-3.881-38.211-0.953-47.359,27.832c-2.517,12.392-5.475,31.019,20.267,44.404c0,0-3.46-22.689,9.303-23.128
				c0,0,10.22,3.088,21.565,11.441c11.379,8.383,23.211,12.38,45.312,8.383c0,0,20.588-3.736,37.866-22.466
				c0,0,5.52-6.825,12.463-12.306c-8.319,12.23-9.754,23.442-9.754,23.442l-10.128,9.655v51.998l12.575,11.556l-2.601,11.054
				l-9.39,2.739l-2.57-4.839l-23.495,8.468c0,0-28.924-16.827-44.322,6.93l-14.957-20.677c0,0-1.488,2.242-3.676,6.482
				c36.306,75.864,144.33,96.317,157.024,99.342c12.754-3.039,121.769-23.667,157.554-100.431
				C1173.551,315.813,1172.933,314.529,1172.295,313.242z"/>
			<path fill="#BE1E2D" d="M939.551,207.088c0,0,36.758-37.865,65.133-17.567l-16.404,0.994
				C988.279,190.515,961.943,195.789,939.551,207.088z"/>
			<path fill="#D7212B" d="M883.264,338.648c0,0,9.898-17.817,33.655-8.414c0,0,22.436,50.317,72.587,69.124
				C989.506,399.358,908.67,380.881,883.264,338.648z"/>
			<path d="M907.681,345.307c0,0,35.194,46.902,81.825,57.9l3.72-3.849C993.226,399.358,940.235,378.91,907.681,345.307z"/>
			<path fill="#D7212B" d="M1150.215,338.648c0,0-9.898-17.817-33.654-8.414c0,0-22.436,50.317-72.588,69.124
				C1043.973,399.358,1124.81,380.881,1150.215,338.648z"/>
			<path fill="#DBB865" d="M951.563,326.771c9.688,15.674,23.163,27.079,35.348,34.984c-8.192-16.251-20.604-31.555-25.375-37.174
				L951.563,326.771z"/>
			<path fill="#DBB865" d="M1081.916,326.771l-2.78-0.61c-8.209,11.818-18.504,20.982-28.354,27.898
				c-1.48,2.518-2.9,5.093-4.213,7.695C1058.753,353.85,1072.228,342.443,1081.916,326.771z"/>
			<path fill="#DBB865" d="M1104.626,330.711c-24.735,45.353-87.887,67.162-87.887,67.162v-4.881c0,0-14.698-11.859-24.116-17.28
				c-0.405-1.357-0.88-2.728-1.388-4.102c-30.673-16.469-47.592-45.83-47.592-45.83l-17.815,5.939
				c22.105,49.491,90.911,73.247,90.911,73.247s68.807-23.756,90.912-73.247L1104.626,330.711z"/>
			<path d="M1125.8,345.307c0,0-35.193,46.902-81.827,57.9l-3.718-3.849C1040.255,399.358,1093.246,378.91,1125.8,345.307z"/>
			<path fill="#DBB865" d="M959.899,242.097l-6.036,4.983c0,0-1.574,40.373,0,47.807l8.08,6.118v-24.469l-4.39-27.416l2.734-0.906
				L959.899,242.097z"/>
			<polygon points="955.7,274.222 955.7,294.613 960.571,296.879 960.571,279.999 			"/>
			<path fill="#DBB865" d="M1073.581,242.097l6.036,4.983c0,0,1.575,40.373,0,47.807l-8.08,6.118v-24.469l4.392-27.416l-2.737-0.906
				L1073.581,242.097z"/>
			<path fill="#DBB865" d="M1069.873,254.666c0,0-17.707,0.685-38.098-10.531l-15.036,10.543l-15.033-10.543
				c-20.392,11.216-38.1,10.531-38.1,10.531c8.835,26.849,0.717,63.897,0.717,63.897c27.187,24.47,32.965,53.018,32.965,53.018
				c6.458-12.915,7.138-38.743,7.138-38.743l-3.398-43.502c-21.071-1.359-25.829-21.751-25.829-21.751l23.108,2.379
				c16.314,7.137,12.236,45.541,12.236,45.541l6.196,7.478l6.198-7.478c0,0-4.078-38.404,12.235-45.541l23.109-2.379
				c0,0-4.758,20.392-25.829,21.751l-3.396,43.502c0,0,0.678,25.828,7.136,38.743c0,0,5.777-28.548,32.966-53.018
				C1069.158,318.563,1061.037,281.515,1069.873,254.666z M978.598,292.04l0.606,21.501c18.424,19.712,18.35,39.424,18.35,39.424
				c-6.117-17.899-24.695-38.29-24.695-38.29v-28.323L978.598,292.04z M1060.622,314.675c0,0-18.577,20.391-24.696,38.29
				c0,0-0.072-19.712,18.353-39.424l0.604-21.501l5.74-5.688V314.675z"/>
			<path fill="#DBB865" d="M1058.055,246.375c6.403,1.232,11.104,1.839,11.104,1.839c-0.339-36.025-29.907-52.678-29.907-52.678
				l-22.512-3.739l-22.511,3.739c0,0-29.567,16.652-29.905,52.678c0,0,4.7-0.606,11.104-1.839c0.756-26.61,22.127-43.4,22.127-43.4
				c-11.305,19.69-12.296,36.853-12.353,41.262c6.661-1.654,13.582-3.833,18.545-6.559l12.993,8.836l12.995-8.836
				c4.963,2.726,11.883,4.904,18.544,6.558c-0.057-4.409-1.046-21.57-12.353-41.261
				C1035.926,202.975,1057.297,219.765,1058.055,246.375z"/>
			<polygon points="1077.781,274.222 1077.781,294.613 1072.91,296.879 1072.91,279.999 			"/>
			<path fill="#BE1E2D" d="M1032.17,187.898c4.449,0.51,9.013,1.455,12.618,2.646c2.96-7.275,2.288-14.633,1.599-20.112
				c-2.37-18.788-20.477-30.441-31.659-31.199c-21.712-1.466-39.713,13.153-55.997,21.076c-12.3,5.981-30.645,12.855-38.777,11.267
				c-12.766-2.494-16.725-8.648-16.266-13.343c1.023-10.482,16.239-8.192,16.239-8.192c-1.888-3.459-8.726-4.346-8.726-4.346
				c-17.169-2.201-22.72,7.562-24.034,15.08c-3.297,18.85,18.301,26.824,18.301,26.824c-0.022,0.015-0.046,0.025-0.068,0.039
				c3.812,1.229,9.927,2.036,18.873-0.039c0,0-8.985,8.949-28.23,2.896c-8.14,0.742-16.017-1.872-16.017-1.872
				c-8.804-3.521-15.258-4.4-15.258-4.4c-25.82-3.815-34.282,22.052-34.282,22.052c-6.615,21.551,5.233,29.793,5.233,29.793
				c-0.105-2.399-0.018-4.516,0.227-6.396l-0.002,0.001c0,0,0.004-0.023,0.011-0.07c0.297-2.233,0.821-4.123,1.535-5.702
				c2.583-7.058,9.136-17.704,24.765-14.579c0,0,3.561,1.271,8.643,5.847c0,0-11.583-3.75-18.047,1.622
				c9.082,1.067,18.372,6.455,18.372,6.455c14.669,7.923,19.953,10.271,19.953,10.271c21.71,7.334,40.364-17.283,40.364-17.283
				c-7.627,9.096-40.734,12.973-48.293,0.256c24.965,2.889,46.59-17.776,57.434-24.753c27.587-17.759,37.69-20.427,61.841-18.664
				c-14.046-9.579-29.55-6.782-29.55-6.782s19.26-7.228,24.905-8.133C1027.466,153.407,1031.954,175.924,1032.17,187.898z"/>
			<g>
				<path fill="#ED1C24" d="M983.494,273.559l11.675,0.86c0,0,4.589,1.924,4.832,6.852
					C1000.001,281.271,987.783,282.198,983.494,273.559z"/>
				<path fill="#ED1C24" d="M1049.986,273.559l-11.676,0.86c0,0-4.591,1.924-4.831,6.852
					C1033.479,281.271,1045.693,282.198,1049.986,273.559z"/>
			</g>
		</g>
		<g>
			<g>
				<g>
					<g>
						<path d="M297.709,125.945l10.307-12.359l13.268-9.108l53.959,56.175l-26.637,24.258L297.709,125.945z M319.759,119.388
							l-3.973,2.729l-3.087,3.702l36.891,42.737l9.279-8.451L319.759,119.388z"/>
						<polygon points="344.209,186.014 370.473,182.17 376.751,156.378 568.735,360.384 588.725,421.833 529.412,396.196 						"/>
						<polygon fill="#B1ADAE" points="305.205,125.882 311.902,117.851 320.522,111.934 367.056,160.379 358.077,168.557 
							349.098,176.732 						"/>
						<path d="M346.578,173.853c0,0-17.594,28.444-20.353,44.644l10.208,5.198c0,0,10.186-23.13,21.554-35.575L346.578,173.853z"/>
						<path fill="#B1ADAE" d="M333.702,213.621c0,0,4.313-18.433,16.759-34.915l1.791,2.24
							C352.252,180.946,338.428,204.444,333.702,213.621z"/>
						<path d="M364.423,157.602c0,0,29.961-14.863,46.349-16.098l4.223,10.648c0,0-23.98,7.982-37.431,18.14L364.423,157.602z"/>
						<path fill="#B1ADAE" d="M405.22,148.493c0,0-18.755,2.575-36.327,13.428l2.063,1.991
							C370.957,163.912,395.642,152.343,405.22,148.493z"/>
						<polygon fill="#DBB865" points="351.893,187.229 374.189,186.249 377.246,164.142 561.432,361.094 575.246,407.031 
							530.798,388.991 						"/>
						<path d="M343.116,193.128l1.822-38.999l38.999,1.825l-1.825,38.997L343.116,193.128z M355.822,166.081l-0.756,16.164
							L371.23,183l0.756-16.162L355.822,166.081z"/>
						<g>
							<g>
								<path d="M341.473,170.932c6.515-15.929,19.635-18.505,20.19-18.605l-0.99-5.629c-0.68,0.119-16.739,3.113-24.49,22.072
									L341.473,170.932z"/>
							</g>
							<g>
								<path d="M331.56,160.047c6.569-16.067,20.043-18.582,20.178-18.604l-0.979-5.631c-0.68,0.118-16.738,3.11-24.49,22.072
									L331.56,160.047z"/>
							</g>
							<g>
								<path d="M321.38,148.867c6.512-15.929,19.633-18.504,20.189-18.605l-0.991-5.629c-0.68,0.116-16.735,3.112-24.49,22.071
									L321.38,148.867z"/>
							</g>
							<g>
								<path d="M313.923,140.679c6.511-15.93,19.633-18.503,20.19-18.605l-0.992-5.63c-0.679,0.119-16.735,3.114-24.489,22.072
									L313.923,140.679z"/>
							</g>
						</g>
						
							<rect x="349.721" y="160.734" transform="matrix(-0.0467 0.9989 -0.9989 -0.0467 554.8672 -180.4309)" fill="#B1ADAE" width="27.61" height="27.612"/>
						
							<rect x="358.18" y="169.193" transform="matrix(-0.0469 0.9989 -0.9989 -0.0469 554.9239 -180.4)" width="10.692" height="10.695"/>
						<polygon points="378.556,191.045 379.792,186.016 548.342,372.735 556.498,386.444 543.611,377.044 373.432,191.807 						"/>
					</g>
					<circle cx="303.034" cy="108.115" r="18.171"/>
					<circle fill="#B1ADAE" cx="303.034" cy="108.114" r="9.287"/>
				</g>
				<g>
					<g>
						<path d="M536.487,184.91l-26.637-24.258l53.959-56.175l13.268,9.108l10.307,12.359L536.487,184.91z M526.226,160.104
							l9.279,8.451l36.891-42.737l-3.087-3.702l-3.973-2.729L526.226,160.104z"/>
						<polygon points="540.884,186.014 514.621,182.17 508.343,156.378 316.359,360.384 296.37,421.833 355.683,396.196 						"/>
						<polygon fill="#B1ADAE" points="579.89,125.882 573.192,117.851 564.572,111.934 518.039,160.379 527.018,168.557 
							535.997,176.732 						"/>
						<path d="M538.516,173.853c0,0,17.594,28.444,20.353,44.644l-10.208,5.198c0,0-10.185-23.13-21.554-35.575L538.516,173.853z"/>
						<path fill="#B1ADAE" d="M551.392,213.621c0,0-4.314-18.433-16.759-34.915l-1.791,2.24
							C532.842,180.946,546.666,204.444,551.392,213.621z"/>
						<path d="M520.671,157.602c0,0-29.961-14.863-46.349-16.098l-4.223,10.648c0,0,23.98,7.982,37.432,18.14L520.671,157.602z"/>
						<path fill="#B1ADAE" d="M479.875,148.493c0,0,18.755,2.575,36.326,13.428l-2.063,1.991
							C514.138,163.912,489.452,152.343,479.875,148.493z"/>
						<polygon fill="#DBB865" points="533.201,187.229 510.905,186.249 507.848,164.142 323.662,361.094 309.848,407.031 
							354.296,388.991 						"/>
						<path d="M502.981,194.951l-1.824-38.997l39-1.825l1.821,38.999L502.981,194.951z M513.107,166.838L513.864,183l16.163-0.755
							l-0.756-16.164L513.107,166.838z"/>
						<g>
							<g>
								<path d="M543.621,170.932c-6.515-15.929-19.635-18.505-20.19-18.605l0.991-5.629c0.68,0.119,16.738,3.113,24.489,22.072
									L543.621,170.932z"/>
							</g>
							<g>
								<path d="M553.534,160.047c-6.568-16.067-20.042-18.582-20.178-18.604l0.979-5.631c0.679,0.118,16.737,3.11,24.489,22.072
									L553.534,160.047z"/>
							</g>
							<g>
								<path d="M563.714,148.867c-6.512-15.929-19.633-18.504-20.189-18.605l0.99-5.629c0.68,0.116,16.736,3.112,24.49,22.071
									L563.714,148.867z"/>
							</g>
							<g>
								<path d="M571.171,140.679c-6.512-15.93-19.634-18.503-20.19-18.605l0.992-5.63c0.68,0.119,16.735,3.114,24.49,22.072
									L571.171,140.679z"/>
							</g>
						</g>
						
							<rect x="507.763" y="160.734" transform="matrix(0.0467 0.9989 -0.9989 0.0467 671.5386 -354.6159)" fill="#B1ADAE" width="27.61" height="27.612"/>
						
							<rect x="516.222" y="169.193" transform="matrix(0.0469 0.9989 -0.9989 0.0469 671.4553 -354.6392)" width="10.692" height="10.695"/>
						<polygon points="506.538,191.045 505.302,186.016 336.752,372.735 328.596,386.444 341.483,377.044 511.661,191.807 						"/>
					</g>
					<circle cx="582.06" cy="108.115" r="18.17"/>
					<circle fill="#B1ADAE" cx="582.06" cy="108.114" r="9.287"/>
				</g>
			</g>
			<path d="M515.087,240.866l-10.689-10.191c0,0-3.068-24.144-26.041-41.075c4.578-13.496,12.984-50.92-26.771-67.958
				c-12.14-5.204-35.765-0.438-61.003,15.044c0,0-51.102,28.569-57.332,15.812c0,0-1.211-7.563,14.396-6.965
				c0,0-4.269-20.53-31.628-14.697c-10.945,3.94-29.935,17.854-14.294,43.558c0,0-3.808-0.916-15.657-4.514
				c-13.509-4.096-40.328-1.006-49.983,29.376c-2.656,13.075-5.778,32.733,21.39,46.863c0,0-3.652-23.947,9.817-24.409
				c0,0,10.787,3.259,22.759,12.073c12.009,8.85,24.498,13.065,47.823,8.85c0,0,21.729-3.944,39.965-23.712
				c0,0,5.824-7.202,13.15-12.985c-8.779,12.907-10.293,24.739-10.293,24.739l-10.689,10.191v54.88l13.271,12.192l-2.869,12.194
				l1.792,2.871c0,0,30.726,36.689,38.554,62.891c7.654-7.655,11.539-19.726,13.476-31.085l8.313,4.875l8.314-4.875
				c1.937,11.359,5.821,23.43,13.476,31.085c7.828-26.201,38.553-62.891,38.553-62.891l1.792-2.871l-2.867-12.194l13.272-12.192
				V240.866z"/>
			<path fill="#BE1E2D" d="M361.085,201.407c0,0,38.792-39.963,68.741-18.539l-17.314,1.048
				C412.512,183.916,384.715,189.481,361.085,201.407z"/>
			<path fill="#DBB865" d="M382.559,238.355l-6.37,5.26c0,0-1.661,42.608,0,50.455l8.526,6.459v-25.827l-4.631-28.935l2.886-0.956
				L382.559,238.355z"/>
			<polygon points="378.129,272.26 378.129,293.782 383.269,296.174 383.269,278.357 			"/>
			<path stroke="#ED1C24" stroke-miterlimit="10" d="M422.299,269.442"/>
			<path fill="#DBB865" d="M502.536,238.355l6.371,5.26c0,0,1.662,42.608,0,50.455l-8.526,6.459v-25.827l4.631-28.935l-2.887-0.956
				L502.536,238.355z"/>
			<path fill="#DBB865" d="M498.625,251.621c0,0-18.691,0.723-40.21-11.115l-15.867,11.129l-15.864-11.129
				c-21.521,11.838-40.211,11.115-40.211,11.115c9.326,28.336,0.756,67.437,0.756,67.437c28.694,25.824,34.792,55.954,34.792,55.954
				c6.815-13.63,7.533-40.89,7.533-40.89l-3.585-45.91c-22.239-1.435-27.262-22.958-27.262-22.958l24.39,2.514
				c17.219,7.53,12.912,48.061,12.912,48.061l6.54,7.894l6.541-7.894c0,0-4.304-40.53,12.914-48.061l24.389-2.514
				c0,0-5.021,21.523-27.261,22.958l-3.586,45.91c0,0,0.717,27.26,7.533,40.89c0,0,6.1-30.13,34.792-55.954
				C497.867,319.058,489.3,279.957,498.625,251.621z M402.293,291.065l0.64,22.693c19.446,20.803,19.365,41.605,19.365,41.605
				c-6.456-18.891-26.063-40.41-26.063-40.41v-29.894L402.293,291.065z M488.859,314.954c0,0-19.607,21.52-26.063,40.41
				c0,0-0.08-20.803,19.366-41.605l0.639-22.693l6.058-6.005V314.954z"/>
			<path fill="#DBB865" d="M486.149,242.87c6.757,1.301,11.718,1.941,11.718,1.941c-0.357-38.021-31.562-55.595-31.562-55.595
				l-23.758-3.947l-23.755,3.947c0,0-31.206,17.574-31.565,55.595c0,0,4.961-0.641,11.72-1.941
				c0.799-28.083,23.352-45.804,23.352-45.804c-11.931,20.781-12.975,38.894-13.037,43.546c7.03-1.745,14.335-4.043,19.573-6.92
				l13.712,9.324l13.713-9.324c5.238,2.877,12.543,5.175,19.573,6.92c-0.061-4.652-1.105-22.765-13.037-43.546
				C462.796,197.066,485.351,214.787,486.149,242.87z"/>
			<polygon points="506.967,272.26 506.967,293.782 501.827,296.174 501.827,278.357 			"/>
			<g>
				<path fill="#ED1C24" d="M409.302,272.26l11.675,0.861c0,0,4.589,1.923,4.832,6.852
					C425.809,279.973,413.592,280.899,409.302,272.26z"/>
				<path fill="#ED1C24" d="M475.795,272.26l-11.676,0.861c0,0-4.591,1.923-4.831,6.852
					C459.288,279.973,471.502,280.899,475.795,272.26z"/>
			</g>
			<path stroke="#ED1C24" stroke-miterlimit="10" d="M462.796,269.442"/>
			<path fill="#BE1E2D" d="M471.649,185.274c2.851-7.565,2.893-16.943,2.187-22.554c-2.5-19.827-21.61-32.128-33.411-32.926
				c-22.914-1.549-41.913,13.882-59.1,22.242c-12.98,6.313-32.342,13.57-40.925,11.889c-13.472-2.631-17.65-9.126-17.167-14.078
				c1.081-11.065,17.139-8.648,17.139-8.648c-1.992-3.649-9.208-4.584-9.208-4.584c-18.12-2.326-23.979,7.979-25.366,15.912
				c-3.48,19.893,19.314,28.311,19.314,28.311c-0.026,0.018-0.056,0.031-0.083,0.049c4.023,1.295,10.492,2.141,19.93-0.049
				c0,0-9.484,9.445-29.798,3.058c-8.588,0.782-16.902-1.976-16.902-1.976c-9.291-3.718-16.103-4.646-16.103-4.646
				c-27.25-4.026-36.179,23.274-36.179,23.274c-6.984,22.745,5.521,31.44,5.521,31.44c-0.112-2.531-0.019-4.764,0.239-6.749
				l-0.002,0.002c0,0,0.006-0.032,0.014-0.087c0.313-2.348,0.863-4.334,1.612-5.997c2.727-7.448,9.641-18.695,26.142-15.395
				c0,0,3.758,1.342,9.123,6.17c0,0-12.227-3.957-19.049,1.711c9.585,1.129,19.39,6.814,19.39,6.814
				c15.483,8.36,21.06,10.838,21.06,10.838c22.91,7.74,42.598-18.238,42.598-18.238c-8.048,9.6-42.989,13.69-50.967,0.268
				c26.346,3.05,49.17-18.76,60.614-26.122c29.115-18.744,39.779-21.56,65.267-19.698c-14.824-10.109-31.186-7.159-31.186-7.159
				s20.327-7.627,26.285-8.584c29.542-4.739,34.889,18.234,35.571,31.429C462.124,181.946,467.201,183.221,471.649,185.274z"/>
		</g>
	</g>
</g>
</svg>
